<?xml version="1.0" encoding="iso-8859-1"?>
<!-- Generator: Adobe Illustrator 16.0.0, SVG Export Plug-In . SVG Version: 6.00 Build 0)  -->
<!DOCTYPE svg PUBLIC "-//W3C//DTD SVG 1.1//EN" "http://www.w3.org/Graphics/SVG/1.1/DTD/svg11.dtd">
<svg version="1.1" id="Capa_1" xmlns="http://www.w3.org/2000/svg" xmlns:xlink="http://www.w3.org/1999/xlink" x="0px" y="0px"
	 width="449.653px" height="449.652px" viewBox="0 0 449.653 449.652" style="enable-background:new 0 0 449.653 449.652;"
	 xml:space="preserve">
<g>
	<g>
		<path d="M78.35,70.451c0,6.904,5.597,12.5,12.5,12.5h239.534v310.521c0,6.902,5.598,12.5,12.5,12.5c6.903,0,12.5-5.598,12.5-12.5
			V70.451c0-6.904-5.597-12.5-12.5-12.5H90.85C83.947,57.951,78.35,63.548,78.35,70.451z"/>
		<path d="M402.042,0H84.557c-4.139,0-8.008,2.048-10.336,5.47L37.305,59.742c-1.41,2.073-2.164,4.522-2.164,7.029L35.11,409.05
			c0,0.299,0.011,0.595,0.031,0.888v27.215c0,6.904,5.597,12.5,12.5,12.5h298.485c1.51,0,2.957-0.269,4.297-0.758
			c1.517-0.426,2.95-1.136,4.223-2.108l54.992-42.067c3.093-2.364,4.905-6.035,4.905-9.928V12.5C414.542,5.596,408.946,0,402.042,0z
			 M389.542,388.615l-47.109,36.037H60.14v-15.599c0-0.297-0.011-0.593-0.031-0.885L60.14,70.622L91.172,25h298.37L389.542,388.615
			L389.542,388.615z"/>
		<path d="M167.417,188.772c-0.938-2.749-3.521-4.596-6.426-4.596h-12.553c-2.909,0-5.492,1.851-6.429,4.605l-35.738,105.182
			c-0.702,2.069-0.361,4.364,0.909,6.137c1.271,1.775,3.334,2.836,5.52,2.836h7.711c2.937,0,5.527-1.873,6.447-4.66l10.096-30.575
			h34.874l10.402,30.63c0.936,2.755,3.52,4.605,6.429,4.605h8.225c2.186,0,4.25-1.062,5.522-2.838
			c1.271-1.778,1.609-4.074,0.903-6.145L167.417,188.772z M142.208,249.66l9.467-27.971l0.038-0.116
			c0.866-2.733,1.724-5.609,2.589-8.686c0.816,2.874,1.729,5.868,2.79,8.98l9.455,27.792L142.208,249.66L142.208,249.66z"/>
		<path d="M259.342,213.926c-9.699,0-18.175,3.136-24.39,8.931v-32.174c0-3.744-3.046-6.79-6.789-6.79h-7.686
			c-1.813,0-3.519,0.706-4.801,1.989c-1.282,1.282-1.988,2.987-1.988,4.801l0.006,105.463c0,3.744,3.046,6.789,6.789,6.789h6.098
			c3.743,0,6.789-3.045,6.789-6.789c0-0.086-0.002-0.174-0.005-0.26c6.055,5.896,14.041,8.877,23.814,8.877
			c10.155,0,20.046-4.268,27.136-11.709c8.047-8.446,12.3-20.437,12.3-34.66c0.096-13.981-4.289-26.149-12.347-34.26
			C277.638,217.456,269.016,213.926,259.342,213.926z M271.311,281.33c-3.342,3.406-7.689,5.062-13.291,5.062
			c-5.318,0-9.387-1.563-12.437-4.778c-7.46-7.868-6.817-22.962-6.812-23.091c0.006-0.092,0.009-0.201,0.011-0.29
			c0.019-1.06,0.664-25.935,19.735-25.935c19.158,0,20.52,25.002,20.565,26.006C279.153,262.438,277.885,274.631,271.311,281.33z"/>
	</g>
</g>
<g>
</g>
<g>
</g>
<g>
</g>
<g>
</g>
<g>
</g>
<g>
</g>
<g>
</g>
<g>
</g>
<g>
</g>
<g>
</g>
<g>
</g>
<g>
</g>
<g>
</g>
<g>
</g>
<g>
</g>
</svg>
